<svg xmlns="http://www.w3.org/2000/svg" xmlns:xlink="http://www.w3.org/1999/xlink" width="271" height="271" viewBox="0 0 271 271"><defs><style>.a{fill:#fff;stroke:#707070;}.b{fill:none;}.c{clip-path:url(#a);}.d{clip-path:url(#b);}</style><clipPath id="a"><rect class="a" width="271" height="271" transform="translate(477 2541)"/></clipPath><clipPath id="b"><rect class="b" width="236.554" height="271"/></clipPath></defs><g class="c" transform="translate(-477 -2541)"><g class="d" transform="translate(494.223 2541)"><path d="M256.922,68.231l-12.107-7.152L211.8,78.687V55.025L203,50.074l-8.254,4.951V91.894l-22.561,11.554V78.137L149.625,90.792V67.132l34.112-17.059V38.518L171.63,31.911,149.623,43.47V7.7l-11-7.7L127.613,7.7V43.47L108.354,31.913,99,37.967V50.625l28.614,16.508v23.66l-22.563-12.1v24.761l-20.909-12.1.553-34.67-11.006-6.6-8.254,6.6V79.233L33.519,61.63,20.313,67.68V81.987L51.681,99.046,31.318,110.6v12.655l11.556,5.5L72.037,111.7,92.4,123.256,72.037,135.914l20.912,12.1H93.5L73.14,160.124l-29.713-17.61-12.107,6.607v13.205l20.909,9.9L20.313,190.389v14.305l13.757,5.5,31.368-17.61v22.558l7.7,6.053,9.352-6.607v-34.11l22.558-11.552V193.69l22.558-13.757v23.66L99,220.1v12.655l9.355,6.053,19.262-11.557v35.766l11.008,7.708,11-7.707V227.252l19.259,11.556,9.356-4.952V220.1l-28.615-16.508V179.933l22.558,12.655V169.475l22.558,12.107V215.7l8.8,6.05,8.254-6.05V193.141L242.613,210.2l14.307-6.054V190.389l-29.713-18.161,18.708-10.454v-12.1l-10.454-6.6L205.2,159.577l-21.462-11.009,20.909-12.107-19.81-12.654L205.2,110.6l30.265,17.608,10.454-5.5V110.051L226.108,99.043l30.815-17.61Zm-107.3,84.191H129.811l-10.452-16.508,9.9-17.61h19.81l9.356,17.61Zm0,0" transform="translate(-20.313)"/></g></g></svg>