<svg xmlns="http://www.w3.org/2000/svg" xmlns:xlink="http://www.w3.org/1999/xlink" width="271" height="271" viewBox="0 0 271 271"><defs><style>.a{fill:#fff;stroke:#707070;}.b{clip-path:url(#a);}</style><clipPath id="a"><rect class="a" width="271" height="271" transform="translate(477 2541)"/></clipPath></defs><g class="b" transform="translate(-477 -2541)"><g transform="translate(477 2541.001)"><path d="M170.166,255.643a13.809,13.809,0,1,0,27.617,0v-22.3H170.194v22.3Zm0,0" transform="translate(-3.567 1.548)"/><path d="M170.166,12.26v22.3h27.589V12.26a13.795,13.795,0,1,0-27.589,0Zm0,0" transform="translate(-3.567 1.548)"/><path d="M125.257,12.26v22.3h27.618V12.26a13.809,13.809,0,0,0-27.618,0Zm0,0" transform="translate(-3.567 1.548)"/><path d="M125.257,255.643a13.809,13.809,0,0,0,27.618,0v-22.3H125.257Zm0,0" transform="translate(-3.567 1.548)"/><path d="M80.38,12.26v22.3h27.589V12.26a13.795,13.795,0,1,0-27.589,0Zm0,0" transform="translate(-3.567 1.548)"/><path d="M80.38,255.643a13.808,13.808,0,0,0,27.616,0v-22.3H80.38Zm0,0" transform="translate(-3.567 1.548)"/><path d="M3.567,178.831a13.811,13.811,0,0,0,13.8,13.808h22.3V165.051h-22.3A13.784,13.784,0,0,0,3.567,178.831Zm0,0" transform="translate(-3.567 1.548)"/><path d="M260.757,165.051h-22.3V192.64h22.3a13.795,13.795,0,1,0,0-27.589Zm0,0" transform="translate(-3.567 1.548)"/><path d="M3.567,133.952a13.811,13.811,0,0,0,13.8,13.808h22.3V120.142h-22.3a13.813,13.813,0,0,0-13.808,13.81Zm0,0" transform="translate(-3.567 1.548)"/><path d="M260.757,120.142h-22.3V147.76h22.3a13.809,13.809,0,1,0,0-27.619Zm0,0" transform="translate(-3.567 1.548)"/><path d="M3.567,89.073a13.811,13.811,0,0,0,13.8,13.808h22.3V75.265h-22.3a13.811,13.811,0,0,0-13.808,13.8Zm0,0" transform="translate(-3.567 1.548)"/><path d="M260.757,75.265h-22.3v27.588h22.3a13.794,13.794,0,0,0,0-27.588Zm0,0" transform="translate(-3.567 1.548)"/><path d="M52.934,205.7a14.389,14.389,0,0,0,14.384,14.384h143.5A14.389,14.389,0,0,0,225.2,205.7V62.2a14.389,14.389,0,0,0-14.384-14.384H67.318A14.389,14.389,0,0,0,52.934,62.2Zm0,0" transform="translate(-3.567 1.548)"/></g></g></svg>