<svg xmlns="http://www.w3.org/2000/svg" xmlns:xlink="http://www.w3.org/1999/xlink" width="271" height="271" viewBox="0 0 271 271"><defs><style>.a{fill:#fff;stroke:#707070;}.b{clip-path:url(#a);}</style><clipPath id="a"><rect class="a" width="271" height="271" transform="translate(477 2541)"/></clipPath></defs><g class="b" transform="translate(-477 -2541)"><g transform="translate(477.013 2544.016)"><path d="M111.549,52.889h-3.674a7.476,7.476,0,0,0-7.772,7.139v30.26h19.244V60.028A7.516,7.516,0,0,0,111.549,52.889Z" transform="translate(-0.031 -0.001)"/><path d="M163.14,52.889h-3.667a7.5,7.5,0,0,0-7.8,7.139v30.26h19.244V60.028a7.475,7.475,0,0,0-7.772-7.139Z" transform="translate(-0.031 -0.001)"/><path d="M135.51,0A135.537,135.537,0,0,0,93.375,264.339a13.389,13.389,0,0,0,4.052.632,13.039,13.039,0,0,0,4.052-25.437A109.434,109.434,0,1,1,212.9,212.845c-7.929,7.139-27.6,21.436-39.408,21.436a17.848,17.848,0,0,1-14.277-6.017c-9.352-10.4-11.394-31.479-11.316-46.136a42.832,42.832,0,0,0,40.681-42.749V98.751H82.438v40.628a42.809,42.809,0,0,0,39.334,42.671c-.128,17.488,2.319,46.162,17.967,63.6a43.976,43.976,0,0,0,33.75,14.735c25.261,0,53.987-25.515,57.177-28.419l.431-.385A135.526,135.526,0,0,0,135.51,0Z" transform="translate(-0.031 -0.001)"/></g></g></svg>