<svg xmlns="http://www.w3.org/2000/svg" width="157.289" height="90" viewBox="0 0 157.289 90"><defs><style>.a{fill:#a61f43;}.b{fill:#491628;}</style></defs><g transform="translate(51.198 0.246)"><rect class="a" width="9.384" height="9.384" transform="translate(22.321 6.635) rotate(-45)"/><path class="a" d="M110.586,19.549l-8.916-8.916L95.034,4,88.4,10.633,64.926,34.106l-5.341-5.341L74.136,14.212,67.5,7.578,52.949,22.129l-6.636,6.636L52.949,35.4,64.926,47.376,95.034,17.268l8.916,8.915L73.842,56.293l6.635,6.636,30.109-30.109,6.635-6.636Z" transform="translate(-46.313 0.191)"/></g><g transform="translate(39.923 67.946)"><path class="a" d="M50.148,73.313a4.028,4.028,0,0,1-2.9,1.135,3.756,3.756,0,0,1-4.05-3.941,3.846,3.846,0,0,1,4.05-4.028,3.943,3.943,0,0,1,2.806,1.168l-.961.928a2.625,2.625,0,0,0-1.845-.72,2.505,2.505,0,0,0-2.631,2.653,2.45,2.45,0,0,0,2.631,2.587,2.814,2.814,0,0,0,1.921-.775Z" transform="translate(-43.189 -66.352)"/><path class="a" d="M54.2,68.667h1.277v5.382H54.218l-.065-.786a2.045,2.045,0,0,1-1.747.95,2.838,2.838,0,1,1,.033-5.677,1.976,1.976,0,0,1,1.714.874Zm-3.231,2.685a1.542,1.542,0,0,0,1.594,1.638,1.633,1.633,0,0,0,0-3.264,1.532,1.532,0,0,0-1.594,1.626Z" transform="translate(-42.491 -66.127)"/><path class="a" d="M57.139,68.669l.1.622a1.586,1.586,0,0,1,1.517-.764,2.041,2.041,0,0,1,1.387.513l-.6,1.157a1.331,1.331,0,0,0-.961-.35,1.242,1.242,0,0,0-1.342,1.364V74.05H55.905V68.669Z" transform="translate(-41.8 -66.129)"/><path class="a" d="M61.5,66.627v7.63H60.175v-7.63Z" transform="translate(-41.333 -66.336)"/><path class="a" d="M67.792,71.361a2.8,2.8,0,1,1-2.816-2.806,2.721,2.721,0,0,1,2.816,2.806Zm-4.268,0a1.467,1.467,0,1,0,2.925,0,1.52,1.52,0,0,0-1.463-1.594,1.479,1.479,0,0,0-1.463,1.594Z" transform="translate(-41.113 -66.125)"/><path class="a" d="M71.61,70.1a1.816,1.816,0,0,0-1.332-.48c-.633,0-.982.2-.982.535s.317.546,1,.589c1.015.065,2.3.295,2.3,1.725,0,.95-.775,1.769-2.314,1.769a3.15,3.15,0,0,1-2.489-.961l.654-.95a2.955,2.955,0,0,0,1.856.753c.5.011.972-.251.972-.644,0-.371-.306-.524-1.07-.568-1.015-.076-2.227-.447-2.227-1.67,0-1.244,1.288-1.681,2.27-1.681a2.891,2.891,0,0,1,2.1.709Z" transform="translate(-40.5 -66.13)"/><path class="a" d="M79.732,68.489a2.191,2.191,0,0,0-1.812-.851c-1.07,0-1.583.448-1.583,1.015,0,.666.786.851,1.7.961,1.594.2,3.078.611,3.078,2.434,0,1.7-1.507,2.434-3.209,2.434A3.173,3.173,0,0,1,74.579,72.6l1.2-.622a2.177,2.177,0,0,0,2.15,1.211c.906,0,1.757-.317,1.757-1.146,0-.72-.753-1.015-1.768-1.124-1.561-.186-3-.6-3-2.314,0-1.572,1.55-2.216,2.958-2.227a3.088,3.088,0,0,1,3,1.518Z" transform="translate(-39.759 -66.364)"/><path class="a" d="M85.961,69.629,86,68.887h1.277v5.382H86.027l-.065-.786a2.045,2.045,0,0,1-1.747.95,2.838,2.838,0,1,1,.033-5.677A1.976,1.976,0,0,1,85.961,69.629Zm-1.594.317a1.633,1.633,0,1,0,1.573,1.632A1.632,1.632,0,0,0,84.367,69.946Zm1.518-3.428H84.312L83.5,68v.066h1.179l1.2-1.5Z" transform="translate(-39.015 -66.347)"/><path class="a" d="M91.679,74.044V71.228a1.284,1.284,0,0,0-1.3-1.441A1.416,1.416,0,0,0,89,71.293v2.751H87.684V68.651h1.19l.088.731a2.428,2.428,0,0,1,1.769-.808,2.342,2.342,0,0,1,2.281,2.642v2.827Z" transform="translate(-38.327 -66.123)"/><path class="a" d="M98.166,73.363a2.77,2.77,0,0,1-2.074.851,2.849,2.849,0,1,1,0-5.7,2.556,2.556,0,0,1,1.943.8l-.841.884a1.634,1.634,0,0,0-1.081-.426,1.514,1.514,0,0,0-1.55,1.594,1.466,1.466,0,0,0,1.528,1.572,1.617,1.617,0,0,0,1.179-.448Z" transform="translate(-37.72 -66.129)"/><path class="a" d="M99.543,66.617v2.991a1.987,1.987,0,0,1,1.681-.808c1.528,0,2.2,1.037,2.2,2.62v2.838H102.1V71.431c0-.982-.513-1.4-1.223-1.4a1.38,1.38,0,0,0-1.331,1.474v2.751H98.211V66.617Z" transform="translate(-37.177 -66.337)"/><path class="a" d="M105.08,71.836a1.433,1.433,0,0,0,1.6,1.146,2.221,2.221,0,0,0,1.441-.5l.851.84a3.306,3.306,0,0,1-2.314.874,2.845,2.845,0,1,1-.1-5.688c1.8,0,2.926,1.114,2.718,3.33Zm2.926-1.1a1.232,1.232,0,0,0-1.4-1.048,1.45,1.45,0,0,0-1.507,1.048Z" transform="translate(-36.569 -66.13)"/><path class="a" d="M113.867,68.654v.633l-2.478,3.439h2.5v1.31h-4.53v-.557l2.576-3.613h-2.38V68.654Z" transform="translate(-35.959 -66.114)"/></g><g transform="translate(0 78.117)"><path class="b" d="M17.215,81.352a5.385,5.385,0,0,1-5.684,5.781H7.065V75.765h4.466a5.369,5.369,0,0,1,5.684,5.586ZM9.192,85.071h2.338a3.638,3.638,0,1,0,0-7.276H9.192Z" transform="translate(-7.065 -75.537)"/><path class="b" d="M19.755,76.875a1.169,1.169,0,1,1-1.169-1.169,1.169,1.169,0,0,1,1.169,1.169ZM17.595,79.1v8.039h1.981V79.1Z" transform="translate(-5.934 -75.543)"/><path class="b" d="M29.559,78.78l-3.41,8.055H24.005L20.579,78.78h2.16l1.1,2.647L25.077,84.8l1.218-3.345,1.1-2.679Z" transform="translate(-5.588 -75.207)"/><path class="b" d="M31.936,76.875a1.169,1.169,0,1,1-1.169-1.169,1.169,1.169,0,0,1,1.169,1.169ZM29.776,79.1v8.039h1.981V79.1Z" transform="translate(-4.602 -75.543)"/><path class="b" d="M38.647,80.946a2.7,2.7,0,0,0-1.981-.715c-.942,0-1.461.292-1.461.8,0,.52.471.812,1.494.877,1.51.1,3.427.438,3.427,2.566,0,1.413-1.153,2.631-3.443,2.631a4.684,4.684,0,0,1-3.7-1.429l.974-1.413a4.392,4.392,0,0,0,2.761,1.12c.747.016,1.445-.374,1.445-.958,0-.552-.455-.78-1.591-.845-1.51-.113-3.313-.666-3.313-2.485,0-1.852,1.916-2.5,3.378-2.5a4.3,4.3,0,0,1,3.118,1.056Z" transform="translate(-4.289 -75.229)"/><path class="b" d="M48.777,82.822a4.165,4.165,0,1,1-4.189-4.174,4.047,4.047,0,0,1,4.189,4.174Zm-6.35,0a2.183,2.183,0,1,0,4.352,0A2.261,2.261,0,0,0,44.6,80.451a2.2,2.2,0,0,0-2.176,2.371Z" transform="translate(-3.49 -75.222)"/><path class="b" d="M51.242,78.817l.146.926a2.36,2.36,0,0,1,2.257-1.137,3.037,3.037,0,0,1,2.062.763l-.893,1.721a1.979,1.979,0,0,0-1.429-.52,1.847,1.847,0,0,0-2,2.03v4.222H49.407V78.817Z" transform="translate(-2.53 -75.227)"/><path class="b" d="M58.158,76.875a1.169,1.169,0,1,1-1.169-1.169,1.169,1.169,0,0,1,1.169,1.169ZM56,79.1v8.039h1.981V79.1Z" transform="translate(-1.84 -75.543)"/><path class="b" d="M66,78.814h1.9V86.82H66.029l-.1-1.169a3.042,3.042,0,0,1-2.6,1.413,4.223,4.223,0,1,1,.049-8.445,2.939,2.939,0,0,1,2.55,1.3Zm-4.807,4a2.293,2.293,0,0,0,2.371,2.436c3.118,0,3.118-4.856,0-4.856a2.28,2.28,0,0,0-2.371,2.42Z" transform="translate(-1.49 -75.225)"/><path class="b" d="M74.035,80.946a2.7,2.7,0,0,0-1.981-.715c-.942,0-1.461.292-1.461.8,0,.52.471.812,1.494.877,1.51.1,3.427.438,3.427,2.566,0,1.413-1.153,2.631-3.443,2.631a4.684,4.684,0,0,1-3.7-1.429l.974-1.413a4.393,4.393,0,0,0,2.761,1.12c.747.016,1.445-.374,1.445-.958,0-.552-.455-.78-1.591-.845-1.51-.113-3.313-.666-3.313-2.485,0-1.851,1.916-2.5,3.378-2.5a4.3,4.3,0,0,1,3.118,1.056Z" transform="translate(-0.5 -75.229)"/><path class="b" d="M87.7,75.779V87.131H85.849l-.13-1.1a2.914,2.914,0,0,1-2.582,1.283,3.929,3.929,0,0,1-4.125-4.189,3.834,3.834,0,0,1,4.076-4.19,3.315,3.315,0,0,1,2.631,1.283V75.779Zm-6.707,7.34a2.3,2.3,0,1,0,2.274-2.339,2.209,2.209,0,0,0-2.274,2.339Z" transform="translate(0.637 -75.535)"/><path class="b" d="M90.5,83.528a2.131,2.131,0,0,0,2.387,1.705,3.306,3.306,0,0,0,2.144-.747l1.267,1.25a4.918,4.918,0,0,1-3.443,1.3,4.232,4.232,0,1,1-.146-8.461c2.679,0,4.352,1.656,4.044,4.953Zm4.352-1.64a1.834,1.834,0,0,0-2.079-1.559,2.157,2.157,0,0,0-2.241,1.559Z" transform="translate(1.65 -75.229)"/><path class="b" d="M112.063,81.536a5.84,5.84,0,1,1-2.884-5.174A5.838,5.838,0,0,1,112.063,81.536Zm-9.565.049a3.741,3.741,0,1,0,1.756-3.514,3.73,3.73,0,0,0-1.756,3.514Z" transform="translate(2.923 -75.559)"/><path class="b" d="M113.154,87.152V81h-1.494V79.259h1.494v-.536a2.9,2.9,0,0,1,3.053-3.134,3.861,3.861,0,0,1,2.079.65l-.73,1.478a2.209,2.209,0,0,0-1.218-.422c-.682,0-1.2.455-1.2,1.429v.536h2.355V81h-2.355v6.155Z" transform="translate(4.137 -75.556)"/><path class="b" d="M120.573,76.875a1.169,1.169,0,1,1-1.169-1.169,1.169,1.169,0,0,1,1.169,1.169Zm-2.16,2.225v8.039h1.981V79.1Z" transform="translate(4.848 -75.543)"/><path class="b" d="M128.926,85.8a4.119,4.119,0,0,1-3.085,1.267,4.238,4.238,0,1,1,0-8.477,3.8,3.8,0,0,1,2.891,1.185l-1.251,1.316a2.431,2.431,0,0,0-1.608-.634,2.252,2.252,0,0,0-2.306,2.371,2.181,2.181,0,0,0,2.273,2.338,2.407,2.407,0,0,0,1.754-.666Z" transform="translate(5.155 -75.228)"/><path class="b" d="M131.393,76.875a1.169,1.169,0,1,1-1.169-1.169,1.169,1.169,0,0,1,1.169,1.169Zm-2.16,2.225v8.039h1.981V79.1Z" transform="translate(5.969 -75.543)"/><path class="b" d="M138.731,86.814v-4.19A1.91,1.91,0,0,0,136.8,80.48a2.106,2.106,0,0,0-2.046,2.241v4.092h-1.965V78.791h1.77l.13,1.088a3.61,3.61,0,0,1,2.631-1.2c1.884,0,3.394,1.413,3.394,3.93v4.206Z" transform="translate(6.377 -75.218)"/><path class="b" d="M148.09,78.814h1.9V86.82h-1.867l-.1-1.169a3.042,3.042,0,0,1-2.6,1.413,4.223,4.223,0,1,1,.049-8.445,2.939,2.939,0,0,1,2.55,1.3Zm-4.807,4a2.293,2.293,0,0,0,2.371,2.436c3.118,0,3.118-4.856,0-4.856a2.28,2.28,0,0,0-2.371,2.42Z" transform="translate(7.3 -75.225)"/></g><g transform="translate(63.197 19.925)"><rect class="a" width="40.949" height="9.384" transform="translate(7.765 28.956) rotate(-45)"/><rect class="a" width="9.39" height="9.384" transform="translate(0 36.721) rotate(-45)"/></g><g transform="translate(35.75)"><path class="a" d="M45.581,29.2,68.144,6.636,61.51,0,38.946,22.564,32.31,29.2l6.636,6.636L58.691,55.578l6.635-6.635Z" transform="translate(-32.31)"/><rect class="a" width="9.384" height="9.405" transform="translate(27.506 56.704) rotate(-45)"/></g></svg>